<svg width="1000" height="1000" viewBox="0 0 1000 1000" fill="none" xmlns="http://www.w3.org/2000/svg">
<path d="M339.115 111.917C491.376 48.8656 673.201 79.2314 796.985 203.015C961.005 367.035 961.005 632.964 796.985 796.984C632.965 961.004 367.035 961.004 203.015 796.984C79.2369 673.205 48.8685 491.39 111.91 339.133C122.295 353.048 142.345 368.493 170.667 390.302C173.199 392.252 174.467 393.227 174.774 394.787C174.821 395.027 174.851 395.276 174.863 395.53C174.941 397.183 174.017 399.047 172.164 402.77C136.692 474.069 118.953 509.719 130.881 526.366C132.595 528.758 134.673 530.835 137.065 532.549C153.711 544.478 189.363 526.742 260.663 491.269C264.385 489.417 266.247 488.49 267.901 488.568C268.154 488.58 268.404 488.61 268.643 488.657C270.205 488.964 271.182 490.233 273.132 492.766C310.479 541.267 329.155 565.515 353.462 558.496C356.955 557.487 360.439 556.08 363.839 554.302C387.504 541.924 398.904 505.51 421.703 432.689C422.894 428.887 423.49 426.985 424.836 425.502C425.043 425.275 425.262 425.056 425.49 424.849C426.972 423.503 428.875 422.907 432.676 421.717C505.497 398.918 541.911 387.517 554.289 363.852C556.068 360.452 557.474 356.967 558.483 353.475C565.502 329.167 541.254 310.491 492.753 273.145C490.22 271.194 488.951 270.217 488.644 268.656C488.597 268.417 488.567 268.167 488.555 267.913C488.478 266.26 489.405 264.398 491.256 260.676C526.73 189.376 544.466 153.724 532.536 137.078C530.822 134.686 528.745 132.608 526.353 130.894C509.706 118.966 474.055 136.705 402.757 172.177C399.035 174.029 397.17 174.953 395.517 174.875C395.263 174.863 395.014 174.834 394.775 174.787C393.214 174.479 392.238 173.213 390.288 170.681C368.476 142.355 353.031 122.302 339.115 111.917ZM282.215 282.218C323.22 241.213 378.623 230.133 405.959 257.469C433.296 284.806 422.215 340.208 381.21 381.213C340.205 422.218 284.803 433.299 257.466 405.962C230.13 378.626 241.21 323.223 282.215 282.218ZM269.726 148.655C261.27 168.294 252.85 195.18 241.712 230.754C240.522 234.556 239.928 236.458 238.581 237.941C238.375 238.168 238.156 238.388 237.929 238.594C236.446 239.941 234.543 240.535 230.741 241.726C195.169 252.863 168.286 261.281 148.647 269.737C164.145 246.141 182.268 223.762 203.015 203.015C223.759 182.271 246.134 164.152 269.726 148.655Z" fill="#646AF5"/>
</svg>
