<svg width="1000" height="1000" viewBox="0 0 1000 1000" fill="none" xmlns="http://www.w3.org/2000/svg">
<path d="M339.114 111.918C491.375 48.8656 673.201 79.2308 796.985 203.015C961.005 367.035 961.005 632.964 796.985 796.984C632.964 961.004 367.035 961.004 203.015 796.984C79.2368 673.206 48.8686 491.391 111.909 339.134C122.295 353.049 142.346 368.493 170.668 390.302C173.2 392.251 174.467 393.227 174.774 394.788C174.821 395.027 174.85 395.276 174.863 395.529C174.941 397.183 174.018 399.047 172.165 402.77C136.693 474.069 118.953 509.718 130.881 526.365C132.595 528.757 134.673 530.835 137.065 532.55C153.711 544.479 189.363 526.743 260.663 491.27C264.385 489.418 266.247 488.49 267.901 488.567C268.154 488.579 268.403 488.61 268.643 488.657C270.204 488.964 271.182 490.233 273.132 492.767C310.478 541.267 329.155 565.514 353.462 558.495C356.954 557.487 360.438 556.08 363.838 554.302C387.504 541.924 398.904 505.51 421.703 432.689C422.894 428.887 423.489 426.985 424.836 425.502C425.043 425.274 425.262 425.055 425.49 424.849C426.972 423.503 428.875 422.907 432.676 421.717C505.497 398.917 541.911 387.517 554.289 363.852C556.067 360.452 557.474 356.967 558.483 353.475C565.502 329.167 541.253 310.492 492.753 273.145C490.22 271.195 488.951 270.217 488.644 268.655C488.597 268.416 488.567 268.166 488.555 267.913C488.478 266.26 489.405 264.398 491.256 260.677C526.729 189.376 544.466 153.725 532.536 137.078C530.822 134.686 528.745 132.608 526.353 130.894C509.706 118.966 474.056 136.706 402.758 172.178C399.035 174.03 397.171 174.953 395.517 174.875C395.263 174.863 395.014 174.833 394.775 174.786C393.214 174.479 392.238 173.214 390.288 170.682C368.476 142.355 353.03 122.302 339.114 111.918ZM282.215 282.219C323.22 241.214 378.623 230.133 405.959 257.47C433.296 284.806 422.215 340.208 381.21 381.213C340.205 422.218 284.803 433.298 257.466 405.962C230.13 378.625 241.211 323.224 282.215 282.219ZM269.726 148.654C261.27 168.294 252.851 195.179 241.713 230.754C240.523 234.556 239.928 236.459 238.582 237.941C238.376 238.169 238.156 238.388 237.929 238.595C236.446 239.941 234.543 240.536 230.74 241.727C195.17 252.863 168.287 261.281 148.648 269.736C164.146 246.14 182.268 223.762 203.015 203.015C223.759 182.271 246.134 164.151 269.726 148.654Z" fill="#86868B"/>
</svg>
